<?xml version="1.0" encoding="UTF-8"?>
<svg xmlns="http://www.w3.org/2000/svg" xmlns:xlink="http://www.w3.org/1999/xlink" width="240" height="426" viewBox="0 0 240 426">
<defs>
<g>
<g id="glyph-0-0">
<path d="M 8.921875 -0.53125 C 8.460938 -0.289062 7.984375 -0.113281 7.484375 0 C 6.984375 0.125 6.460938 0.1875 5.921875 0.1875 C 4.304688 0.1875 3.023438 -0.265625 2.078125 -1.171875 C 1.128906 -2.078125 0.65625 -3.300781 0.65625 -4.84375 C 0.65625 -6.394531 1.128906 -7.625 2.078125 -8.53125 C 3.023438 -9.4375 4.304688 -9.890625 5.921875 -9.890625 C 6.460938 -9.890625 6.984375 -9.828125 7.484375 -9.703125 C 7.984375 -9.585938 8.460938 -9.410156 8.921875 -9.171875 L 8.921875 -7.15625 C 8.460938 -7.476562 8.003906 -7.710938 7.546875 -7.859375 C 7.097656 -8.003906 6.625 -8.078125 6.125 -8.078125 C 5.238281 -8.078125 4.535156 -7.789062 4.015625 -7.21875 C 3.503906 -6.644531 3.25 -5.851562 3.25 -4.84375 C 3.25 -3.84375 3.503906 -3.054688 4.015625 -2.484375 C 4.535156 -1.910156 5.238281 -1.625 6.125 -1.625 C 6.625 -1.625 7.097656 -1.695312 7.546875 -1.84375 C 8.003906 -1.988281 8.460938 -2.222656 8.921875 -2.546875 Z "/>
</g>
<g id="glyph-0-1">
<path d="M 5.203125 -1.703125 C 5.722656 -1.703125 6.101562 -1.800781 6.34375 -2 C 6.59375 -2.207031 6.71875 -2.515625 6.71875 -2.921875 C 6.71875 -3.316406 6.59375 -3.617188 6.34375 -3.828125 C 6.113281 -4.023438 5.734375 -4.125 5.203125 -4.125 L 3.734375 -4.125 L 3.734375 -1.703125 Z M 9.21875 -3 C 9.21875 -1.96875 8.898438 -1.222656 8.265625 -0.765625 C 7.566406 -0.253906 6.601562 0 5.375 0 L 1.21875 0 L 1.21875 -9.71875 L 3.734375 -9.71875 L 3.734375 -6.015625 L 5.375 -6.015625 C 6.601562 -6.015625 7.566406 -5.757812 8.265625 -5.25 C 8.898438 -4.789062 9.21875 -4.039062 9.21875 -3 Z M 10.078125 -9.71875 L 12.59375 -9.71875 L 12.59375 0 L 10.078125 0 Z "/>
</g>
<g id="glyph-0-2">
<path d="M 1.21875 -9.71875 L 3.734375 -9.71875 L 3.734375 -6.015625 L 7.421875 -6.015625 L 7.421875 -9.71875 L 9.9375 -9.71875 L 9.9375 0 L 7.421875 0 L 7.421875 -4.125 L 3.734375 -4.125 L 3.734375 0 L 1.21875 0 Z "/>
</g>
<g id="glyph-0-3">
<path d="M 6.0625 -1.609375 C 5.882812 -1.242188 5.671875 -0.941406 5.421875 -0.703125 C 4.898438 -0.234375 3.898438 0 2.421875 0 L 1.96875 0 L 1.96875 -1.890625 L 2.65625 -1.890625 C 3.257812 -1.890625 3.632812 -2.039062 3.78125 -2.34375 C 3.8125 -2.40625 3.84375 -2.46875 3.875 -2.53125 L 0.390625 -9.71875 L 3 -9.71875 L 5.15625 -5.296875 L 7.25 -9.71875 L 9.875 -9.71875 Z "/>
</g>
</g>
</defs>
<g fill="rgb(96.862745%, 85.098039%, 43.529412%)" fill-opacity="1">
<use xlink:href="#glyph-0-0" x="30" y="32.375977"/>
<use xlink:href="#glyph-0-1" x="40" y="32.375977"/>
<use xlink:href="#glyph-0-2" x="54" y="32.375977"/>
<use xlink:href="#glyph-0-3" x="65" y="32.375977"/>
</g>
</svg>
