<?xml version="1.0" encoding="UTF-8"?>
<svg xmlns="http://www.w3.org/2000/svg" xmlns:xlink="http://www.w3.org/1999/xlink" width="240" height="426" viewBox="0 0 240 426">
<defs>
<g>
<g id="glyph-0-0">
<path d="M 6.59375 -5.234375 C 7.238281 -5.066406 7.734375 -4.773438 8.078125 -4.359375 C 8.421875 -3.941406 8.59375 -3.410156 8.59375 -2.765625 C 8.59375 -1.796875 8.222656 -1.0625 7.484375 -0.5625 C 6.742188 -0.0625 5.601562 0.1875 4.0625 0.1875 C 3.425781 0.1875 2.851562 0.144531 2.34375 0.0625 C 1.832031 -0.0195312 1.34375 -0.140625 0.875 -0.296875 L 0.875 -2.21875 C 1.34375 -1.988281 1.804688 -1.8125 2.265625 -1.6875 C 2.734375 -1.570312 3.300781 -1.515625 3.96875 -1.515625 C 4.675781 -1.515625 5.203125 -1.628906 5.546875 -1.859375 C 5.898438 -2.085938 6.078125 -2.414062 6.078125 -2.84375 C 6.078125 -3.289062 5.894531 -3.628906 5.53125 -3.859375 C 5.175781 -4.085938 4.578125 -4.203125 3.734375 -4.203125 L 2.546875 -4.203125 L 2.546875 -5.8125 L 3.796875 -5.8125 C 4.554688 -5.8125 5.085938 -5.910156 5.390625 -6.109375 C 5.703125 -6.304688 5.859375 -6.609375 5.859375 -7.015625 C 5.859375 -7.378906 5.707031 -7.664062 5.40625 -7.875 C 5.101562 -8.082031 4.660156 -8.1875 4.078125 -8.1875 C 3.460938 -8.1875 2.882812 -8.128906 2.34375 -8.015625 C 1.8125 -7.910156 1.394531 -7.785156 1.09375 -7.640625 L 1.09375 -9.46875 C 1.382812 -9.570312 1.847656 -9.664062 2.484375 -9.75 C 3.128906 -9.84375 3.65625 -9.890625 4.0625 -9.890625 C 5.488281 -9.890625 6.5625 -9.679688 7.28125 -9.265625 C 8 -8.859375 8.359375 -8.238281 8.359375 -7.40625 C 8.359375 -6.832031 8.207031 -6.363281 7.90625 -6 C 7.613281 -5.632812 7.175781 -5.378906 6.59375 -5.234375 Z "/>
</g>
<g id="glyph-0-1">
<path d="M 7.125 -1.765625 L 3.203125 -1.765625 L 2.578125 0 L 0.0625 0 L 3.65625 -9.71875 L 6.65625 -9.71875 L 10.25 0 L 7.734375 0 Z M 3.828125 -3.578125 L 6.484375 -3.578125 L 5.15625 -7.4375 Z "/>
</g>
<g id="glyph-0-2">
<path d="M 1.21875 -9.71875 L 4.40625 -9.71875 L 6.625 -4.515625 L 8.84375 -9.71875 L 12.03125 -9.71875 L 12.03125 0 L 9.671875 0 L 9.671875 -7.109375 L 7.421875 -1.875 L 5.84375 -1.875 L 3.59375 -7.109375 L 3.59375 0 L 1.21875 0 Z "/>
</g>
<g id="glyph-0-3">
<path d="M 1.21875 -9.71875 L 7.984375 -9.71875 L 7.984375 -7.828125 L 3.734375 -7.828125 L 3.734375 -6.015625 L 7.734375 -6.015625 L 7.734375 -4.125 L 3.734375 -4.125 L 3.734375 -1.890625 L 8.125 -1.890625 L 8.125 0 L 1.21875 0 Z "/>
</g>
<g id="glyph-0-4">
<path d="M 7.046875 0 L 7.046875 -3.703125 L 3.640625 -3.703125 C 2.816406 -3.703125 2.179688 -3.957031 1.734375 -4.46875 C 1.296875 -4.976562 1.078125 -5.734375 1.078125 -6.734375 L 1.078125 -9.71875 L 3.578125 -9.71875 L 3.578125 -7.921875 C 3.578125 -6.898438 3.65625 -6.257812 3.8125 -6 C 3.976562 -5.738281 4.265625 -5.609375 4.671875 -5.609375 L 7.046875 -5.609375 L 7.046875 -9.71875 L 9.546875 -9.71875 L 9.546875 0 Z "/>
</g>
<g id="glyph-0-5">
<path d="M 1.21875 -9.71875 L 3.734375 -9.71875 L 3.734375 -6.015625 L 7.421875 -6.015625 L 7.421875 -9.71875 L 9.9375 -9.71875 L 9.9375 0 L 7.421875 0 L 7.421875 -4.125 L 3.734375 -4.125 L 3.734375 0 L 1.21875 0 Z "/>
</g>
<g id="glyph-0-6">
<path d="M 9.9375 -9.71875 L 9.9375 0 L 7.5625 0 L 7.5625 -6.671875 L 4.015625 0 L 1.21875 0 L 1.21875 -9.71875 L 3.59375 -9.71875 L 3.59375 -3.046875 L 7.125 -9.71875 Z "/>
</g>
</g>
</defs>
<g fill="rgb(96.862745%, 85.098039%, 43.529412%)" fill-opacity="1">
<use xlink:href="#glyph-0-0" x="30" y="32.375977"/>
<use xlink:href="#glyph-0-1" x="39" y="32.375977"/>
<use xlink:href="#glyph-0-2" x="49" y="32.375977"/>
<use xlink:href="#glyph-0-3" x="62" y="32.375977"/>
<use xlink:href="#glyph-0-4" x="71" y="32.375977"/>
<use xlink:href="#glyph-0-1" x="82" y="32.375977"/>
<use xlink:href="#glyph-0-5" x="92" y="32.375977"/>
<use xlink:href="#glyph-0-6" x="103" y="32.375977"/>
<use xlink:href="#glyph-0-3" x="114" y="32.375977"/>
</g>
</svg>
