<?xml version="1.0" encoding="UTF-8"?>
<svg xmlns="http://www.w3.org/2000/svg" xmlns:xlink="http://www.w3.org/1999/xlink" width="240" height="426" viewBox="0 0 240 426">
<defs>
<g>
<g id="glyph-0-0">
<path d="M 1.21875 -9.71875 L 4.40625 -9.71875 L 6.625 -4.515625 L 8.84375 -9.71875 L 12.03125 -9.71875 L 12.03125 0 L 9.671875 0 L 9.671875 -7.109375 L 7.421875 -1.875 L 5.84375 -1.875 L 3.59375 -7.109375 L 3.59375 0 L 1.21875 0 Z "/>
</g>
<g id="glyph-0-1">
<path d="M 7.125 -1.765625 L 3.203125 -1.765625 L 2.578125 0 L 0.0625 0 L 3.65625 -9.71875 L 6.65625 -9.71875 L 10.25 0 L 7.734375 0 Z M 3.828125 -3.578125 L 6.484375 -3.578125 L 5.15625 -7.4375 Z "/>
</g>
<g id="glyph-0-2">
<path d="M 0.0625 -9.71875 L 9.015625 -9.71875 L 9.015625 -7.828125 L 5.796875 -7.828125 L 5.796875 0 L 3.296875 0 L 3.296875 -7.828125 L 0.0625 -7.828125 Z "/>
</g>
<g id="glyph-0-3">
<path d="M 1.21875 -9.71875 L 7.984375 -9.71875 L 7.984375 -7.828125 L 3.734375 -7.828125 L 3.734375 -6.015625 L 7.734375 -6.015625 L 7.734375 -4.125 L 3.734375 -4.125 L 3.734375 -1.890625 L 8.125 -1.890625 L 8.125 0 L 1.21875 0 Z "/>
</g>
<g id="glyph-0-4">
<path d="M 1.21875 -9.71875 L 5.375 -9.71875 C 6.613281 -9.71875 7.5625 -9.441406 8.21875 -8.890625 C 8.882812 -8.335938 9.21875 -7.554688 9.21875 -6.546875 C 9.21875 -5.523438 8.882812 -4.738281 8.21875 -4.1875 C 7.5625 -3.644531 6.613281 -3.375 5.375 -3.375 L 3.734375 -3.375 L 3.734375 0 L 1.21875 0 Z M 3.734375 -7.90625 L 3.734375 -5.1875 L 5.109375 -5.1875 C 5.597656 -5.1875 5.972656 -5.300781 6.234375 -5.53125 C 6.503906 -5.769531 6.640625 -6.109375 6.640625 -6.546875 C 6.640625 -6.984375 6.503906 -7.316406 6.234375 -7.546875 C 5.972656 -7.785156 5.597656 -7.90625 5.109375 -7.90625 Z "/>
</g>
<g id="glyph-0-5">
<path d="M 9.9375 -9.71875 L 9.9375 0 L 7.5625 0 L 7.5625 -6.671875 L 4.015625 0 L 1.21875 0 L 1.21875 -9.71875 L 3.59375 -9.71875 L 3.59375 -3.046875 L 7.125 -9.71875 Z "/>
</g>
</g>
</defs>
<g fill="rgb(96.862745%, 85.098039%, 43.529412%)" fill-opacity="1">
<use xlink:href="#glyph-0-0" x="30" y="32.375977"/>
<use xlink:href="#glyph-0-1" x="43" y="32.375977"/>
<use xlink:href="#glyph-0-2" x="53" y="32.375977"/>
<use xlink:href="#glyph-0-3" x="62" y="32.375977"/>
<use xlink:href="#glyph-0-4" x="71" y="32.375977"/>
<use xlink:href="#glyph-0-5" x="81" y="32.375977"/>
</g>
</svg>
