<?xml version="1.0" encoding="UTF-8"?>
<svg xmlns="http://www.w3.org/2000/svg" xmlns:xlink="http://www.w3.org/1999/xlink" width="240" height="426" viewBox="0 0 240 426">
<defs>
<g>
<g id="glyph-0-0">
<path d="M 0.0625 -9.71875 L 9.015625 -9.71875 L 9.015625 -7.828125 L 5.796875 -7.828125 L 5.796875 0 L 3.296875 0 L 3.296875 -7.828125 L 0.0625 -7.828125 Z "/>
</g>
<g id="glyph-0-1">
<path d="M 9.9375 -9.71875 L 9.9375 0 L 7.5625 0 L 7.5625 -6.671875 L 4.015625 0 L 1.21875 0 L 1.21875 -9.71875 L 3.59375 -9.71875 L 3.59375 -3.046875 L 7.125 -9.71875 Z "/>
</g>
<g id="glyph-0-2">
<path d="M 9.484375 -1.890625 L 12.734375 -1.890625 L 12.734375 -9.71875 L 15.234375 -9.71875 L 15.234375 0 L 1.21875 0 L 1.21875 -9.71875 L 3.734375 -9.71875 L 3.734375 -1.890625 L 6.96875 -1.890625 L 6.96875 -9.71875 L 9.484375 -9.71875 Z "/>
</g>
<g id="glyph-0-3">
<path d="M 1.21875 -9.71875 L 3.734375 -9.71875 L 3.734375 -6.015625 L 7.421875 -6.015625 L 7.421875 -9.71875 L 9.9375 -9.71875 L 9.9375 0 L 7.421875 0 L 7.421875 -4.125 L 3.734375 -4.125 L 3.734375 0 L 1.21875 0 Z "/>
</g>
<g id="glyph-0-4">
<path d="M 1.21875 -9.71875 L 7.984375 -9.71875 L 7.984375 -7.828125 L 3.734375 -7.828125 L 3.734375 -6.015625 L 7.734375 -6.015625 L 7.734375 -4.125 L 3.734375 -4.125 L 3.734375 -1.890625 L 8.125 -1.890625 L 8.125 0 L 1.21875 0 Z "/>
</g>
</g>
</defs>
<g fill="rgb(96.862745%, 85.098039%, 43.529412%)" fill-opacity="1">
<use xlink:href="#glyph-0-0" x="30" y="32.375977"/>
<use xlink:href="#glyph-0-1" x="39" y="32.375977"/>
<use xlink:href="#glyph-0-2" x="50" y="32.375977"/>
<use xlink:href="#glyph-0-1" x="66" y="32.375977"/>
<use xlink:href="#glyph-0-3" x="77" y="32.375977"/>
<use xlink:href="#glyph-0-4" x="88" y="32.375977"/>
</g>
</svg>
